<svg xmlns="http://www.w3.org/2000/svg" width="640" height="480" viewBox="0 0 640 480" fill="none">
  <rect width="640" height="480" rx="24" fill="#F8FBFF"/>
  <g transform="translate(80,60)">
    <rect x="0" y="0" width="240" height="320" rx="12" fill="#fff" stroke="#D9EEFF" />
    <rect x="16" y="20" width="208" height="28" rx="6" fill="#E6F7FB" />
    <rect x="16" y="60" width="160" height="16" rx="4" fill="#E8F4FF" />
    <rect x="16" y="84" width="120" height="12" rx="4" fill="#E8F4FF" />
    <rect x="16" y="104" width="180" height="12" rx="4" fill="#E8F4FF" />
    <rect x="16" y="126" width="80" height="12" rx="4" fill="#E8F4FF" />
    <circle cx="300" cy="90" r="36" fill="#DCFDF7" stroke="#7EE7D8" />
    <rect x="260" y="140" width="120" height="140" rx="12" fill="#E8F4FF" stroke="#BEE7FF" />
    <g transform="translate(268,152)" fill="#034E7B">
      <rect x="0" y="0" width="96" height="12" rx="6" />
      <rect x="0" y="24" width="60" height="8" rx="4" />
      <rect x="0" y="40" width="84" height="8" rx="4" />
    </g>
    <g transform="translate(300,44)" fill="#06B6D4">
      <rect x="-10" y="-26" width="20" height="8" rx="4" />
      <rect x="-26" y="-10" width="52" height="8" rx="4" />
    </g>
  </g>
</svg>
